# xmcd CD database file
#
# Track frame offsets:
#	150
#	17460
#	39877
#	63863
#	77578
#	93094
#	110937
#	123295
#	143884
#	160423
#	178620
#	197682
#	208620
#
# Disc length: 2878 seconds
#
# Revision: 0
# Processed by: cddbd v1.5.2PL0 Copyright (c) Steve Scherf et al.
# Submitted via: CDex 1.51
#
DISCID=a40b3c0d
DTITLE=Terra Hazelton - Gimme Whatcha Got
DYEAR=2009
DGENRE=Jazz
TTITLE0=Coffee In The Morning
TTITLE1=Everything I've Got Belongs To You
TTITLE2=If I Had You
TTITLE3=If I Can't Sell It (I'll Keep Sitting On It)
TTITLE4=Gotta Gimme Whatcha Got
TTITLE5=What Are You Doing New Years Eve?
TTITLE6=Don't Let Your Love Go Wrong
TTITLE7=Smoking My Sad Cigarette
TTITLE8=I Like It Cause' I Love It
TTITLE9=Two Sleepy People
TTITLE10=Send Me To The 'Lectric Chair
TTITLE11=I'm An Old Cowhand
TTITLE12=Just Squeeze Me
EXTD=YEAR: 2009
EXTT0=
EXTT1=
EXTT2=
EXTT3=
EXTT4=
EXTT5=
EXTT6=
EXTT7=
EXTT8=
EXTT9=
EXTT10=
EXTT11=
EXTT12=
PLAYORDER=
